<?xml version="1.0" encoding="UTF-8" standalone="no"?>
<!-- Created with Inkscape (http://www.inkscape.org/) -->

<svg
   width="256"
   height="256"
   viewBox="0 0 256.00001 256"
   version="1.1"
   id="svg1"
   inkscape:version="1.4 (86a8ad7, 2024-10-11)"
   xml:space="preserve"
   sodipodi:docname="logo.svg"
   inkscape:export-filename="logo.png"
   inkscape:export-xdpi="96"
   inkscape:export-ydpi="96"
   xmlns:inkscape="http://www.inkscape.org/namespaces/inkscape"
   xmlns:sodipodi="http://sodipodi.sourceforge.net/DTD/sodipodi-0.dtd"
   xmlns:xlink="http://www.w3.org/1999/xlink"
   xmlns="http://www.w3.org/2000/svg"
   xmlns:svg="http://www.w3.org/2000/svg"><sodipodi:namedview
     id="namedview1"
     pagecolor="#505050"
     bordercolor="#ffffff"
     borderopacity="1"
     inkscape:showpageshadow="0"
     inkscape:pageopacity="0"
     inkscape:pagecheckerboard="1"
     inkscape:deskcolor="#505050"
     inkscape:document-units="px"
     inkscape:zoom="2.2290437"
     inkscape:cx="99.594278"
     inkscape:cy="141.54052"
     inkscape:window-width="1920"
     inkscape:window-height="1009"
     inkscape:window-x="1912"
     inkscape:window-y="-8"
     inkscape:window-maximized="1"
     inkscape:current-layer="svg1" /><defs
     id="defs1"><linearGradient
       id="linearGradient41"
       inkscape:collect="always"><stop
         style="stop-color:#e74f12;stop-opacity:1;"
         offset="0"
         id="stop40" /><stop
         style="stop-color:#fcb348;stop-opacity:1;"
         offset="1"
         id="stop41" /></linearGradient><linearGradient
       id="linearGradient38"
       inkscape:collect="always"><stop
         style="stop-color:#0f2469;stop-opacity:1;"
         offset="0"
         id="stop38" /><stop
         style="stop-color:#3a91cd;stop-opacity:1;"
         offset="1"
         id="stop39" /></linearGradient><linearGradient
       id="linearGradient33"
       inkscape:collect="always"><stop
         style="stop-color:#f7ab4e;stop-opacity:1;"
         offset="0"
         id="stop32" /><stop
         style="stop-color:#fddb8e;stop-opacity:1;"
         offset="1"
         id="stop33" /></linearGradient><linearGradient
       id="linearGradient31"
       inkscape:collect="always"><stop
         style="stop-color:#ef7a25;stop-opacity:1;"
         offset="0"
         id="stop30" /><stop
         style="stop-color:#fdbb4e;stop-opacity:1;"
         offset="1"
         id="stop31" /></linearGradient><linearGradient
       id="linearGradient29"
       inkscape:collect="always"><stop
         style="stop-color:#e9571c;stop-opacity:1;"
         offset="0"
         id="stop28" /><stop
         style="stop-color:#ee7a26;stop-opacity:1;"
         offset="1"
         id="stop29" /></linearGradient><linearGradient
       id="linearGradient16"
       inkscape:collect="always"><stop
         style="stop-color:#4a9bd7;stop-opacity:1;"
         offset="0"
         id="stop16" /><stop
         style="stop-color:#b3e3ef;stop-opacity:1;"
         offset="1"
         id="stop17" /></linearGradient><linearGradient
       id="linearGradient14"
       inkscape:collect="always"><stop
         style="stop-color:#2c65a7;stop-opacity:1;"
         offset="0"
         id="stop14" /><stop
         style="stop-color:#5bbce5;stop-opacity:1;"
         offset="1"
         id="stop15" /></linearGradient><linearGradient
       id="linearGradient6"
       inkscape:collect="always"><stop
         style="stop-color:#1e4688;stop-opacity:1;"
         offset="0"
         id="stop6" /><stop
         style="stop-color:#2c65a7;stop-opacity:1;"
         offset="1"
         id="stop7" /></linearGradient><linearGradient
       id="linearGradient1"
       inkscape:collect="always"><stop
         style="stop-color:#6db9e0;stop-opacity:1;"
         offset="0"
         id="stop1" /><stop
         style="stop-color:#996fc4;stop-opacity:1;"
         offset="1"
         id="stop2" /></linearGradient><linearGradient
       inkscape:collect="always"
       xlink:href="#linearGradient1"
       id="linearGradient2"
       x1="0.26148501"
       y1="0.26148501"
       x2="255.73853"
       y2="255.73851"
       gradientUnits="userSpaceOnUse" /><linearGradient
       inkscape:collect="always"
       xlink:href="#linearGradient6"
       id="linearGradient7"
       x1="317.07043"
       y1="58.050858"
       x2="328.00906"
       y2="38.913876"
       gradientUnits="userSpaceOnUse"
       gradientTransform="translate(203.69304,70.201917)" /><filter
       inkscape:collect="always"
       style="color-interpolation-filters:sRGB"
       id="filter8"
       x="-0.1220299"
       y="-0.19622936"
       width="1.2440598"
       height="1.3924587"><feGaussianBlur
         inkscape:collect="always"
         stdDeviation="1.3338336"
         id="feGaussianBlur8" /></filter><linearGradient
       inkscape:collect="always"
       xlink:href="#linearGradient14"
       id="linearGradient15"
       x1="535.71265"
       y1="111.91513"
       x2="604.52734"
       y2="90.5121"
       gradientUnits="userSpaceOnUse" /><linearGradient
       inkscape:collect="always"
       xlink:href="#linearGradient16"
       id="linearGradient17"
       x1="576.586"
       y1="124.6473"
       x2="607.20148"
       y2="85.79245"
       gradientUnits="userSpaceOnUse" /><linearGradient
       inkscape:collect="always"
       xlink:href="#linearGradient33"
       id="linearGradient25"
       gradientUnits="userSpaceOnUse"
       x1="576.586"
       y1="124.6473"
       x2="607.20148"
       y2="85.79245"
       gradientTransform="matrix(-1.2119533,0,0,-1.2119533,832.69051,268.4717)" /><linearGradient
       inkscape:collect="always"
       xlink:href="#linearGradient31"
       id="linearGradient26"
       gradientUnits="userSpaceOnUse"
       x1="535.71265"
       y1="111.91513"
       x2="604.52734"
       y2="90.5121"
       gradientTransform="matrix(-1.2119533,0,0,-1.2119533,832.69051,268.4717)" /><linearGradient
       inkscape:collect="always"
       xlink:href="#linearGradient29"
       id="linearGradient27"
       gradientUnits="userSpaceOnUse"
       gradientTransform="matrix(-1.2119533,0,0,-1.2119533,585.82406,183.39026)"
       x1="317.07043"
       y1="58.050858"
       x2="328.00906"
       y2="38.913876" /><linearGradient
       inkscape:collect="always"
       xlink:href="#linearGradient38"
       id="linearGradient39"
       x1="309.77768"
       y1="282.3902"
       x2="309.77768"
       y2="263.95526"
       gradientUnits="userSpaceOnUse"
       gradientTransform="matrix(1.0287217,0,0,1.0287217,-11.691074,-65.457161)" /><linearGradient
       inkscape:collect="always"
       xlink:href="#linearGradient41"
       id="linearGradient40"
       gradientUnits="userSpaceOnUse"
       gradientTransform="matrix(1.0287217,0,0,1.0287217,110.55891,-65.457161)"
       x1="309.77768"
       y1="282.3902"
       x2="309.77768"
       y2="263.95526" /></defs><rect
     style="fill:url(#linearGradient2);fill-opacity:1;stroke:#000000;stroke-width:0.52297;stroke-linecap:round;stroke-linejoin:round;paint-order:markers stroke fill"
     id="rect1"
     width="255.47704"
     height="255.47702"
     x="0.26148501"
     y="0.26148501"
     inkscape:label="fondo"
     ry="29.819082" /><path
     id="rect3"
     style="opacity:0.795872;fill:#0dc667;fill-opacity:1;stroke-width:44.8073;paint-order:markers stroke fill"
     d="m 165.45613,202.51146 c -2.21109,0.33498 -2.62521,1.61531 -1.24238,3.8404 l 18.41036,18.29711 -18.86224,18.63629 c -1.43419,2.0034 -0.8314,3.20775 1.80752,3.61385 h 14.68262 c 1.69687,0.0303 3.12787,-0.68481 4.2923,-2.14555 l 18.07115,-17.73252 c 1.34116,-1.59447 1.37101,-3.62033 -0.67784,-5.4214 l -17.50658,-17.3939 c -0.78685,-0.83857 -1.5857,-1.66263 -3.04931,-1.69428 z m 41.7336,32.9803 c -1.18888,0 -2.14614,0.95727 -2.14614,2.14614 v 7.39767 c 0,1.18887 0.95726,2.14613 2.14614,2.14613 h 26.31653 c 1.18886,0 2.14614,-0.95726 2.14614,-2.14613 v -7.39767 c 0,-1.18887 -0.95728,-2.14614 -2.14614,-2.14614 z" /><g
     id="g45"
     transform="translate(0.724152,-26.457325)"><g
       id="g44"><g
         id="g18"><path
           d="M 79.881493,113.02366 H 25.690542 c -3.453379,0 -6.252806,2.79943 -6.252806,6.2528 v 37.51682 c 0,3.45338 2.799427,6.25281 6.252806,6.25281 h 54.19095 c 3.453359,0 6.252789,-2.79943 6.252789,-6.25281 v -37.51682 c 0,-3.45337 -2.79943,-6.2528 -6.252788,-6.2528 z m -0.781606,43.76962 H 26.472142 a 0.78160033,0.78160033 0 0 1 -0.7816,-0.7816 v -35.95361 a 0.78160033,0.78160033 0 0 1 0.7816,-0.78161 h 52.627743 a 0.78160033,0.78160033 0 0 1 0.781607,0.78161 v 35.95361 a 0.78160033,0.78160033 0 0 1 -0.781605,0.7816 z M 36.111874,124.48714 c -2.87772,0 -5.21066,2.33294 -5.21066,5.21066 0,2.87772 2.33294,5.21066 5.21066,5.21066 2.877727,0 5.210667,-2.33294 5.210667,-5.21066 0,-2.87772 -2.332948,-5.21066 -5.210667,-5.21066 z m -4.168538,26.05334 h 41.685351 v -10.42133 l -11.400293,-11.4003 c -0.610432,-0.61043 -1.600191,-0.61043 -2.210753,0 l -15.568692,15.56882 -5.147486,-5.14748 c -0.610433,-0.61044 -1.600198,-0.61044 -2.210761,0 l -5.147364,5.14748 z"
           id="path1"
           style="fill:#1d3a79;fill-opacity:1;stroke-width:0.130267" /><g
           id="g17"
           transform="matrix(1.2119533,0,0,1.2119533,-578.13881,-42.391061)"><path
             d="m 579.64443,81.134815 c -0.9577,-0.676308 -2.1162,-0.646471 -3.05845,0.06962 -0.94225,0.716088 -1.51379,2.018976 -1.51379,3.421322 v 36.600213 c 0,1.40234 0.57925,2.70524 1.51379,3.42133 0.93452,0.71608 2.10075,0.74591 3.05845,0.0696 l 25.95055,-18.30011 c 0.9886,-0.69619 1.60648,-2.03887 1.60648,-3.49094 0,-1.45207 -0.61788,-2.79474 -1.60648,-3.490942 z"
             id="path9"
             style="fill:url(#linearGradient17);fill-opacity:1;stroke-width:0.0876442" /><path
             id="path1-1"
             style="display:inline;fill:url(#linearGradient15);stroke-width:0.080347"
             d="m 577.85742,82.501953 c -0.48323,0.0114 -0.96654,0.183485 -1.39844,0.511719 -0.8638,0.656467 -1.38671,1.849177 -1.38671,3.134766 V 93.9375 h -27.51954 c -3.44794,0.22672 -7.0794,-0.0061 -10.27343,0.855469 8.19761,-0.04435 14.71437,2.903626 19.54882,8.845701 3.69395,4.84377 8.49653,7.6039 14.41016,8.27735 h 3.83399 v 7.7871 c 0,1.28559 0.52998,2.47829 1.38671,3.13477 0.85672,0.65646 1.92673,0.68446 2.80469,0.0644 l 23.78906,-16.77539 c 0.90629,-0.63824 1.47461,-1.87 1.47461,-3.20117 0,-1.33118 -0.56832,-2.56294 -1.47461,-3.201171 l -23.78906,-16.77539 c -0.43898,-0.31 -0.92302,-0.458662 -1.40625,-0.447266 z" /><path
             style="fill:#70b5e0;fill-opacity:1;stroke:none;stroke-width:0.257;stroke-linecap:round;stroke-linejoin:round;paint-order:markers stroke fill"
             d="m 537.27947,94.792714 c 8.23811,-0.02599 14.75414,2.922873 19.54809,8.846586 3.77094,4.88781 8.57473,7.64642 14.41137,8.27583 h -3.69395 c -4.80231,-1.60706 -8.79607,-4.37941 -11.98126,-8.31703 -5.13723,-6.00324 -11.75424,-8.710584 -19.85105,-8.122031 z"
             id="path3"
             sodipodi:nodetypes="ccccccc" /><path
             style="fill:url(#linearGradient7);fill-opacity:1;stroke:none;stroke-width:0.257;stroke-linecap:round;stroke-linejoin:round;paint-order:markers stroke fill"
             d="m 567.54498,111.91513 c -4.73297,-1.55906 -8.72672,-4.3314 -11.98126,-8.31703 -5.16856,-6.016039 -11.78558,-8.723383 -19.85105,-8.122031 -15.4576,5.813561 -23.44898,16.739131 -23.97414,32.776701 l 17.69316,-0.0357 0.35672,-2.74672 c 1.73602,-8.32339 6.89653,-12.93694 15.48152,-13.84062 z"
             id="path4"
             sodipodi:nodetypes="cccccccc" /><path
             style="fill:#1a477d;fill-opacity:1;stroke:none;stroke-width:0.257;stroke-linecap:round;stroke-linejoin:round;paint-order:markers stroke fill"
             d="m 567.54498,111.91513 c -4.74001,-1.56392 -8.73376,-4.33626 -11.98126,-8.31703 -5.22148,-6.037555 -11.8385,-8.7449 -19.85105,-8.122031 l -0.1977,0.07479 c 7.1616,0.05905 14.95225,4.903211 18.6169,9.074261 3.66465,4.17104 4.38504,4.94077 7.61602,7.21575 z"
             id="path7"
             sodipodi:nodetypes="cccczcc" /><path
             style="mix-blend-mode:normal;fill:#1a477d;fill-opacity:0.5;stroke:none;stroke-width:0.257;stroke-linecap:round;stroke-linejoin:round;paint-order:markers stroke fill;filter:url(#filter8)"
             d="m 535.51497,95.550859 c 6.75536,-0.37626 13.81895,3.803473 18.6169,9.074261 l 7.61602,7.21575 -12.43987,-0.15938 c -5.08276,-5.79098 -8.03766,-11.14681 -13.79305,-16.130631 z"
             id="path8"
             sodipodi:nodetypes="ccccc" /></g></g><g
         id="g43"><path
           d="m 228.86117,63.03455 h -54.19095 c -3.45338,0 -6.2528,2.79943 -6.2528,6.2528 v 37.51682 c 0,3.45338 2.79942,6.25281 6.2528,6.25281 h 54.19095 c 3.45336,0 6.25279,-2.79943 6.25279,-6.25281 V 69.28735 c 0,-3.45337 -2.79943,-6.2528 -6.25279,-6.2528 z m -0.7816,43.76962 h -52.62775 a 0.78160033,0.78160033 0 0 1 -0.7816,-0.7816 V 70.06896 a 0.78160033,0.78160033 0 0 1 0.7816,-0.78161 h 52.62775 a 0.78160033,0.78160033 0 0 1 0.7816,0.78161 v 35.95361 a 0.78160033,0.78160033 0 0 1 -0.7816,0.7816 z M 185.09155,74.49803 c -2.87772,0 -5.21066,2.33294 -5.21066,5.21066 0,2.87772 2.33294,5.21066 5.21066,5.21066 2.87773,0 5.21067,-2.33294 5.21067,-5.21066 0,-2.87772 -2.33295,-5.21066 -5.21067,-5.21066 z m -4.16853,26.05334 h 41.68535 V 90.13004 l -11.4003,-11.4003 c -0.61043,-0.61043 -1.60019,-0.61043 -2.21075,0 l -15.56869,15.56882 -5.14749,-5.14748 c -0.61043,-0.61044 -1.60019,-0.61044 -2.21076,0 l -5.14736,5.14748 z"
           id="path18"
           style="fill:#ea561b;fill-opacity:1;stroke-width:0.130267" /><g
           id="g42"><path
             d="m 130.18853,170.14009 c 1.16069,0.81966 2.56474,0.7835 3.7067,-0.0844 1.14196,-0.86787 1.83464,-2.44691 1.83464,-4.14649 v -44.35774 c 0,-1.69957 -0.70202,-3.27863 -1.83464,-4.1465 -1.1326,-0.86785 -2.54601,-0.904 -3.7067,-0.0844 l -31.450854,22.17888 c -1.198138,0.84375 -1.946979,2.47102 -1.946979,4.23086 0,1.75984 0.748841,3.38709 1.946979,4.23086 z"
             id="path19"
             style="fill:url(#linearGradient25);fill-opacity:1;stroke-width:0.106221" /><path
             id="path20"
             style="display:inline;fill:url(#linearGradient26);stroke-width:0.0973768"
             d="m 132.3543,168.48319 c 0.58566,-0.0138 1.1714,-0.22238 1.69485,-0.62018 1.04688,-0.79561 1.68062,-2.24112 1.68062,-3.79919 v -9.43998 h 33.3524 c 4.17874,-0.27478 8.5799,0.007 12.45092,-1.03679 -9.93512,0.0538 -17.83313,-3.51906 -23.69226,-10.72058 -4.47689,-5.87042 -10.2974,-9.21557 -17.46444,-10.03176 h -4.64662 v -9.4376 c 0,-1.55808 -0.64231,-3.00357 -1.68062,-3.7992 -1.03831,-0.7956 -2.33511,-0.82953 -3.39916,-0.0781 l -28.83123,20.33099 c -1.09838,0.77352 -1.78715,2.26636 -1.78715,3.87967 0,1.61333 0.68877,3.10617 1.78715,3.87967 l 28.83123,20.33099 c 0.53203,0.37571 1.11866,0.55588 1.70431,0.54207 z" /><path
             style="fill:#f7c078;fill-opacity:1;stroke:none;stroke-width:0.311472;stroke-linecap:round;stroke-linejoin:round;paint-order:markers stroke fill"
             d="m 181.53288,153.58736 c -9.9842,0.0315 -17.88133,-3.54239 -23.69137,-10.72165 -4.5702,-5.9238 -10.39217,-9.26711 -17.46591,-10.02992 h 4.4769 c 5.82017,1.94768 10.66042,5.30764 14.52073,10.07985 6.22608,7.27565 14.24559,10.55682 24.05854,9.84352 z"
             id="path21"
             sodipodi:nodetypes="ccccccc" /><path
             style="fill:url(#linearGradient27);fill-opacity:1;stroke:none;stroke-width:0.311472;stroke-linecap:round;stroke-linejoin:round;paint-order:markers stroke fill"
             d="m 144.8525,132.83579 c 5.73614,1.88951 10.57638,5.24945 14.52073,10.07985 6.26405,7.29116 14.28357,10.57233 24.05854,9.84352 18.73389,-7.04576 28.41907,-20.28704 29.05554,-39.72383 l -21.44328,0.0433 -0.43233,3.3289 c -2.10398,10.08756 -8.35827,15.67896 -18.76288,16.77418 z"
             id="path22"
             sodipodi:nodetypes="cccccccc" /><path
             style="fill:#e25218;fill-opacity:1;stroke:none;stroke-width:0.311472;stroke-linecap:round;stroke-linejoin:round;paint-order:markers stroke fill"
             d="m 144.8525,132.83579 c 5.74467,1.8954 10.58491,5.25534 14.52073,10.07985 6.32819,7.31724 14.34771,10.59841 24.05854,9.84352 l 0.2396,-0.0906 c -8.67952,-0.0716 -18.12142,-5.94246 -22.56281,-10.99758 -4.44138,-5.05511 -5.31446,-5.98798 -9.23026,-8.74515 z"
             id="path23"
             sodipodi:nodetypes="cccczcc" /><path
             style="mix-blend-mode:normal;fill:#ea581b;fill-opacity:0.5;stroke:none;stroke-width:0.257;stroke-linecap:round;stroke-linejoin:round;paint-order:markers stroke fill;filter:url(#filter8)"
             d="m 535.51497,95.550859 c 6.75536,-0.37626 13.81895,3.803473 18.6169,9.074261 l 7.61602,7.21575 -12.43987,-0.15938 c -5.08276,-5.79098 -8.03766,-11.14681 -13.79305,-16.130631 z"
             id="path24"
             sodipodi:nodetypes="ccccc"
             transform="matrix(-1.2119533,0,0,-1.2119533,832.69051,268.4717)" /></g></g></g><g
       id="g41"
       transform="translate(-269.76897,-8.8787441)"><text
         xml:space="preserve"
         style="font-weight:bold;font-size:24.8913px;font-family:Arial;-inkscape-font-specification:'Arial Bold';text-align:start;writing-mode:lr-tb;direction:ltr;text-anchor:start;opacity:1;fill:url(#linearGradient39);stroke:#96c0ec;stroke-width:0.539051;stroke-linecap:round;stroke-linejoin:round;stroke-dasharray:none;stroke-opacity:1;paint-order:markers stroke fill"
         x="306.07462"
         y="224.4704"
         id="text33"
         transform="scale(0.97653732,1.0240264)"><tspan
           sodipodi:role="line"
           id="tspan33"
           x="306.07462"
           y="224.4704"
           style="font-style:normal;font-variant:normal;font-weight:bold;font-stretch:normal;font-family:Gadugi;-inkscape-font-specification:'Gadugi Bold';fill:url(#linearGradient39);fill-opacity:1;stroke:#96c0ec;stroke-width:0.539051;stroke-dasharray:none;stroke-opacity:1">CONVERT</tspan></text><text
         xml:space="preserve"
         style="font-weight:bold;font-size:24.8913px;font-family:Arial;-inkscape-font-specification:'Arial Bold';text-align:start;writing-mode:lr-tb;direction:ltr;text-anchor:start;opacity:1;fill:url(#linearGradient40);stroke:#efc173;stroke-width:0.539051;stroke-linecap:round;stroke-linejoin:round;stroke-dasharray:none;stroke-opacity:1;paint-order:markers stroke fill"
         x="428.32468"
         y="224.4704"
         id="text39"
         transform="scale(0.97653732,1.0240264)"><tspan
           sodipodi:role="line"
           id="tspan39"
           x="428.32468"
           y="224.4704"
           style="font-style:normal;font-variant:normal;font-weight:bold;font-stretch:normal;font-family:Gadugi;-inkscape-font-specification:'Gadugi Bold';fill:url(#linearGradient40);fill-opacity:1;stroke:#efc173;stroke-width:0.539051;stroke-dasharray:none;stroke-opacity:1">IMAGE</tspan></text></g></g></svg>
